# 3ds Max Wavefront OBJ Exporter v0.97b - (c)2007 guruware
# File Created: 14.06.2017 14:55:46

mtllib tiananmenneibu_F1.mtl

#
# object Object001
#

v  -5160.0000 133.9048 -1685.0000
v  -4940.0000 133.9048 -1685.0000
v  -4940.0000 133.9048 -1425.0000
v  -5160.0000 133.9048 -1425.0000
v  -4940.0000 138.9048 -1425.0000
v  -4940.0000 138.9048 -1685.0000
v  -5160.0000 138.9048 -1685.0000
v  -5160.0000 138.9048 -1425.0000
v  5160.0000 133.9048 -1416.3047
v  4950.0000 133.9048 -1416.3047
v  4950.0000 133.9048 -1685.0000
v  5160.0000 133.9048 -1685.0000
v  5160.0000 138.9048 -1685.0000
v  4950.0000 138.9048 -1685.0000
v  4950.0000 138.9048 -1416.3047
v  5160.0000 138.9048 -1416.3047
# 16 vertices

vn 0.0000 -1.0000 -0.0000
vn 0.0000 1.0000 -0.0000
vn 0.0000 0.0000 1.0000
vn 1.0000 0.0000 -0.0000
vn 0.0000 0.0000 -1.0000
vn -1.0000 0.0000 -0.0000
# 6 vertex normals

vt 1.0000 1.0000 0.0000
vt 0.0000 1.0000 0.0000
vt 0.0000 0.0000 0.0000
vt 1.0000 0.0000 0.0000
# 4 texture coords

g Object001
usemtl _tiananmenneibuTAM_dingmian
s off
f 1/1/1 2/2/1 3/3/1 4/4/1 
f 5/4/2 6/1/2 7/2/2 8/3/2 
f 3/4/3 5/1/3 8/2/3 4/3/3 
f 5/2/4 3/3/4 2/4/4 6/1/4 
f 2/3/5 1/4/5 7/1/5 6/2/5 
f 1/3/6 4/4/6 8/1/6 7/2/6 
f 9/3/1 10/4/1 11/1/1 12/2/1 
f 13/1/2 14/2/2 15/3/2 16/4/2 
f 15/2/3 10/3/3 9/4/3 16/1/3 
f 13/1/4 16/2/4 9/3/4 12/4/4 
f 11/4/5 14/1/5 13/2/5 12/3/5 
f 14/2/6 11/3/6 10/4/6 15/1/6 
# 12 polygons

#
# object Object002
#

v  4950.0000 -0.0559 -1416.3048
v  4950.0000 49.4531 -1416.3048
v  4950.0000 49.4531 -1436.3048
v  4950.0000 -0.0559 -1436.3048
v  5160.0000 -0.0559 -1416.3048
v  5160.0000 49.4531 -1416.3048
v  5160.0000 -0.0559 -1436.3048
v  5160.0000 49.4531 -1436.3048
v  5140.0000 -0.0559 -1685.0001
v  5140.0000 49.4531 -1685.0001
v  5160.0000 49.4531 -1685.0001
v  5160.0000 -0.0559 -1685.0001
v  4950.0000 49.4531 -1685.0001
v  4950.0000 -0.0559 -1685.0001
v  4950.0000 -0.0559 -1665.0001
v  4950.0000 49.4531 -1665.0001
v  5160.0000 49.4531 -1665.0001
v  5160.0000 -0.0559 -1665.0001
v  4970.0000 -0.0559 -1685.0001
v  4970.0000 49.4531 -1685.0001
v  4970.0000 -0.0559 -1416.3048
v  4970.0000 49.4531 -1416.3048
v  -4940.0000 -0.0559 -1685.0001
v  -4960.0000 -0.0559 -1685.0001
v  -4960.0000 49.7716 -1685.0001
v  -4940.0000 49.7716 -1685.0001
v  -4940.0000 49.7716 -1425.0001
v  -4960.0000 49.7716 -1425.0001
v  -4960.0000 -0.0559 -1425.0001
v  -4940.0000 -0.0559 -1425.0001
v  -5160.0000 -0.0559 -1445.0001
v  -5160.0000 -0.0559 -1425.0001
v  -5160.0000 49.7716 -1425.0001
v  -5160.0000 49.7716 -1445.0001
v  -4940.0000 -0.0559 -1445.0001
v  -4940.0000 49.7716 -1445.0001
v  -5160.0000 49.7716 -1665.0001
v  -5160.0000 49.7716 -1685.0001
v  -5160.0000 -0.0559 -1685.0001
v  -5160.0000 -0.0559 -1665.0001
v  -4940.0000 -0.0559 -1665.0001
v  -4940.0000 49.7716 -1665.0001
v  -5140.0000 49.7716 -1685.0001
v  -5140.0000 -0.0559 -1685.0001
# 44 vertices

vn -1.0000 0.0000 -0.0000
vn 0.0000 0.0000 1.0000
vn 1.0000 0.0000 -0.0000
vn 0.0000 0.0000 -1.0000
# 4 vertex normals

vt 0.0000 0.0000 0.0000
vt 0.0000 1.0000 0.0000
vt 1.0000 0.0000 0.0000
vt 1.0000 1.0000 0.0000
vt 0.6717 1.0000 0.0000
vt 0.6501 0.0000 0.0000
# 6 texture coords

g Object002
usemtl _tiananmenneibuTAM_waiqiang
s off
f 17/5/7 18/5/7 19/6/7 20/6/7 
f 21/7/8 22/7/8 18/5/8 17/5/8 
f 23/8/9 24/8/9 22/7/9 21/7/9 
f 25/5/10 26/5/10 27/6/10 28/6/10 
f 27/6/9 22/9/9 21/9/9 
f 21/9/9 28/6/9 27/6/9 
f 29/6/7 30/6/7 31/5/7 32/5/7 
f 28/8/9 27/8/9 33/7/9 
f 33/7/9 34/7/9 28/8/9 
f 29/6/10 27/8/10 28/8/10 
f 28/8/10 30/6/10 29/6/10 
f 35/6/10 30/5/10 29/5/10 
f 29/5/10 36/6/10 35/6/10 
f 18/7/7 29/5/7 30/5/7 
f 30/5/7 17/7/7 18/7/7 
f 37/8/8 38/8/8 18/7/8 
f 18/7/8 17/7/8 37/8/8 
f 39/6/10 40/5/10 41/5/10 42/6/10 
f 43/8/8 44/7/8 45/7/8 46/8/8 
f 46/8/9 39/6/9 42/6/9 43/8/9 
f 47/6/7 48/5/7 49/5/7 50/6/7 
f 43/7/8 49/5/8 48/5/8 
f 48/5/8 46/7/8 43/7/8 
f 51/8/9 52/8/9 43/7/9 
f 43/7/9 46/7/9 51/8/9 
f 53/5/7 54/6/7 55/6/7 56/5/7 
f 57/7/9 39/8/9 42/8/9 
f 42/8/9 58/7/9 57/7/9 
f 54/6/10 42/8/10 39/8/10 
f 39/8/10 55/6/10 54/6/10 
f 55/5/10 54/5/10 59/6/10 
f 59/6/10 60/6/10 55/5/10 
f 55/5/7 48/10/7 49/10/7 
f 49/10/7 54/5/7 55/5/7 
# 10 polygons - 24 triangles

#
# object Object003
#

v  5160.0000 49.4531 -1416.3048
v  5160.0000 49.4531 -1436.3048
v  4950.0000 49.4531 -1436.3048
v  4950.0000 49.4531 -1416.3048
v  5160.0000 -0.0559 -1436.3048
v  4950.0000 -0.0559 -1436.3048
v  5140.0000 49.4531 -1416.3048
v  5160.0000 49.4531 -1685.0001
v  5140.0000 49.4531 -1685.0001
v  5140.0000 -0.0559 -1685.0001
v  5140.0000 -0.0559 -1416.3048
v  4950.0000 49.4531 -1685.0001
v  4950.0000 49.4531 -1665.0001
v  5160.0000 49.4531 -1665.0001
v  4950.0000 -0.0559 -1665.0001
v  5160.0000 -0.0559 -1665.0001
v  4970.0000 49.4531 -1685.0001
v  4970.0000 49.4531 -1416.3048
v  4970.0000 -0.0559 -1416.3048
v  4970.0000 -0.0559 -1685.0001
v  -4960.0000 49.7716 -1425.0001
v  -4940.0000 49.7716 -1425.0001
v  -4940.0000 49.7716 -1685.0001
v  -4960.0000 49.7716 -1685.0001
v  -4960.0000 -0.0559 -1685.0001
v  -4960.0000 -0.0559 -1425.0001
v  -4940.0000 49.7716 -1445.0001
v  -5160.0000 49.7716 -1445.0001
v  -5160.0000 49.7716 -1425.0001
v  -4940.0000 -0.0559 -1445.0001
v  -5160.0000 -0.0559 -1445.0001
v  -5160.0000 49.7716 -1685.0001
v  -5160.0000 49.7716 -1665.0001
v  -4940.0000 49.7716 -1665.0001
v  -5160.0000 -0.0559 -1665.0001
v  -4940.0000 -0.0559 -1665.0001
v  -5140.0000 49.7716 -1425.0001
v  -5140.0000 49.7716 -1685.0001
v  -5140.0000 -0.0559 -1685.0001
v  -5140.0000 -0.0559 -1425.0001
# 40 vertices

vn 0.0000 1.0000 -0.0000
vn 0.0000 0.0000 -1.0000
vn -1.0000 0.0000 -0.0000
vn 0.0000 0.0000 1.0000
vn 1.0000 0.0000 -0.0000
# 5 vertex normals

vt 1.0000 0.0000 0.0000
vt 1.0000 1.0000 0.0000
vt 0.0000 1.0000 0.0000
vt 0.0000 0.0000 0.0000
vt 0.6717 0.0000 0.0000
vt 0.6717 1.0000 0.0000
vt 0.6500 0.0000 0.0000
vt 0.6500 1.0000 0.0000
# 8 texture coords

g Object003
usemtl _tiananmenneibuTAM_neiqiang
s off
f 61/11/11 62/12/11 63/13/11 64/14/11 
f 63/13/12 62/12/12 65/12/12 66/13/12 
f 67/15/11 61/16/11 68/13/11 69/14/11 
f 67/15/13 69/14/13 70/14/13 71/15/13 
f 68/12/11 72/13/11 73/14/11 74/11/11 
f 75/14/14 76/11/14 74/11/14 73/14/14 
f 77/13/11 72/14/11 64/11/11 78/12/11 
f 78/12/15 79/12/15 80/13/15 77/13/15 
f 81/11/11 82/12/11 83/13/11 84/14/11 
f 81/11/13 84/14/13 85/14/13 86/11/13 
f 87/12/11 88/13/11 89/14/11 82/11/11 
f 88/13/12 87/12/12 90/12/12 91/13/12 
f 83/12/11 92/13/11 93/14/11 94/11/11 
f 93/14/14 95/14/14 96/11/14 94/11/14 
f 89/17/11 97/18/11 98/13/11 92/14/11 
f 99/13/15 98/13/15 97/18/15 100/18/15 
# 16 polygons

#
# object Object004
#

v  4950.0000 -5.2502 -1685.0000
v  5160.0000 -5.2502 -1685.0000
v  5160.0000 -5.2502 -1416.3047
v  4950.0000 -5.2502 -1416.3047
v  5160.0000 -0.2502 -1416.3047
v  5160.0000 -0.2502 -1685.0000
v  4950.0000 -0.2502 -1685.0000
v  4950.0000 -0.2502 -1416.3047
v  -4940.0000 -5.0560 -1425.0000
v  -5160.0000 -5.0560 -1425.0000
v  -5160.0000 -5.0560 -1685.0000
v  -4940.0000 -5.0560 -1685.0000
v  -4940.0000 -0.0560 -1685.0000
v  -5160.0000 -0.0560 -1685.0000
v  -5160.0000 -0.0560 -1425.0000
v  -4940.0000 -0.0560 -1425.0000
# 16 vertices

vn 0.0000 -1.0000 -0.0000
vn 0.0000 1.0000 -0.0000
vn 0.0000 0.0000 1.0000
vn 1.0000 0.0000 -0.0000
vn 0.0000 0.0000 -1.0000
vn -1.0000 0.0000 -0.0000
# 6 vertex normals

vt 1.0000 1.0000 0.0000
vt 0.0000 1.0000 0.0000
vt 0.0000 0.0000 0.0000
vt 1.0000 0.0000 0.0000
# 4 texture coords

g Object004
usemtl _tiananmenneibuTAM_dimian
s off
f 101/19/16 102/20/16 103/21/16 104/22/16 
f 105/22/17 106/19/17 107/20/17 108/21/17 
f 103/22/18 105/19/18 108/20/18 104/21/18 
f 105/20/19 103/21/19 102/22/19 106/19/19 
f 102/21/20 101/22/20 107/19/20 106/20/20 
f 101/21/21 104/22/21 108/19/21 107/20/21 
f 109/21/16 110/22/16 111/19/16 112/20/16 
f 113/19/17 114/20/17 115/21/17 116/22/17 
f 115/20/18 110/21/18 109/22/18 116/19/18 
f 113/19/19 116/20/19 109/21/19 112/22/19 
f 111/22/20 114/19/20 113/20/20 112/21/20 
f 114/20/21 111/21/21 110/22/21 115/19/21 
# 12 polygons

